<svg xmlns="http://www.w3.org/2000/svg" viewBox="0 0 512 512">
  <!-- Full bleed background for maskable (no rounded corners) -->
  <rect width="512" height="512" fill="#161b22"/>
  <polyline points="70,370 150,290 230,310 320,190 430,140"
    stroke="#58a6ff" stroke-width="14" fill="none"
    stroke-linecap="round" stroke-linejoin="round"/>
  <line x1="110" y1="310" x2="110" y2="330" stroke="#3fb950" stroke-width="5"/>
  <rect x="93" y="330" width="34" height="70" rx="4" fill="#3fb950"/>
  <line x1="110" y1="400" x2="110" y2="420" stroke="#3fb950" stroke-width="5"/>
  <line x1="195" y1="265" x2="195" y2="285" stroke="#f85149" stroke-width="5"/>
  <rect x="178" y="285" width="34" height="55" rx="4" fill="#f85149"/>
  <line x1="195" y1="340" x2="195" y2="360" stroke="#f85149" stroke-width="5"/>
  <line x1="280" y1="185" x2="280" y2="205" stroke="#3fb950" stroke-width="5"/>
  <rect x="263" y="205" width="34" height="65" rx="4" fill="#3fb950"/>
  <line x1="280" y1="270" x2="280" y2="292" stroke="#3fb950" stroke-width="5"/>
  <line x1="375" y1="135" x2="375" y2="155" stroke="#3fb950" stroke-width="5"/>
  <rect x="358" y="155" width="34" height="75" rx="4" fill="#3fb950"/>
  <line x1="375" y1="230" x2="375" y2="252" stroke="#3fb950" stroke-width="5"/>
  <text x="256" y="478" font-family="monospace" font-size="52" font-weight="bold"
    fill="#58a6ff" text-anchor="middle" letter-spacing="4">MCA</text>
</svg>
